Coordinates
version=1
nRows=37
nColumns=38
inDegrees=no

Units are S.I. units (second, meters, Newtons, ...)
If the header above contains a line with 'inDegrees', this indicates whether rotational values are in degrees (yes) or radians (no).

endheader
time	pelvis_tilt	pelvis_list	pelvis_rotation	pelvis_tx	pelvis_ty	pelvis_tz	hip_flexion_r	hip_adduction_r	hip_rotation_r	knee_angle_r	ankle_angle_r	subtalar_angle_r	mtp_angle_r	hip_flexion_l	hip_adduction_l	hip_rotation_l	knee_angle_l	ankle_angle_l	subtalar_angle_l	mtp_angle_l	lumbar_extension	lumbar_bending	lumbar_rotation	arm_flex_r	arm_add_r	arm_rot_r	elbow_flex_r	pro_sup_r	wrist_flex_r	wrist_dev_r	arm_flex_l	arm_add_l	arm_rot_l	elbow_flex_l	pro_sup_l	wrist_flex_l	wrist_dev_l
0	2.37155	1.47593	-0.646027	0.610471	-0.601224	0.909364	0.315458	-0.0242118	-0.249023	0.376431	0.0927721	0	0	0.0156641	-0.301466	-0.0886547	1.10804	-0.172381	0	0	-0.17817	0.104461	-0.21558	-0.148374	-0.235245	0.122207	0.550771	0.329944	0	0	0.0405222	-0.364013	0.203686	0.733957	1.38934	0	0
0.01	2.41172	1.47452	-0.692606	0.613327	-0.590958	0.911588	0.300727	-0.016417	-0.234255	0.377574	0.0997198	0	0	0.0415311	-0.297377	-0.0756686	1.15237	-0.146592	0	0	-0.183928	0.102999	-0.207387	-0.147288	-0.233531	0.116436	0.547507	0.336412	0	0	0.0352016	-0.361205	0.209233	0.725237	1.38185	0	0
0.02	2.47312	1.47277	-0.760878	0.616132	-0.580472	0.914193	0.282404	-0.0104372	-0.220878	0.376596	0.106888	0	0	0.0643678	-0.290996	-0.0646109	1.1954	-0.107999	0	0	-0.191652	0.09974	-0.199072	-0.146785	-0.231066	0.10879	0.544252	0.344459	0	0	0.0291277	-0.358759	0.214036	0.717997	1.37313	0	0
0.03	2.53299	1.47178	-0.827799	0.61885	-0.570105	0.916879	0.263234	-0.00579824	-0.207955	0.372055	0.112786	0	0	0.087354	-0.283156	-0.0555952	1.23409	-0.0644759	0	0	-0.198434	0.0952725	-0.190657	-0.146878	-0.228554	0.101719	0.541646	0.339589	0	0	0.022927	-0.355243	0.21394	0.709121	1.39179	0	0
0.04	2.60075	1.4706	-0.902386	0.621449	-0.559785	0.91972	0.24176	-0.00294469	-0.197636	0.363873	0.117391	0	0	0.108269	-0.273722	-0.0481183	1.26509	-0.0278309	0	0	-0.205429	0.0896447	-0.182925	-0.147667	-0.226256	0.0962768	0.539686	0.342558	0	0	0.0159084	-0.352739	0.216817	0.702977	1.39165	0	0
0.05	2.66002	1.47013	-0.968669	0.623964	-0.549622	0.922491	0.220788	-0.000927329	-0.188496	0.35325	0.121477	0	0	0.130248	-0.263635	-0.0421089	1.29053	0.0012125	0	0	-0.210814	0.0836996	-0.175658	-0.148512	-0.223785	0.0904583	0.537105	0.346046	0	0	0.00787321	-0.350516	0.220399	0.697774	1.39266	0	0
0.06	2.71261	1.47067	-1.02836	0.626382	-0.539648	0.925127	0.201125	1.97368e-05	-0.181592	0.341863	0.124689	0	0	0.15371	-0.252931	-0.0373265	1.31157	0.0245648	0	0	-0.214563	0.0774805	-0.168837	-0.149359	-0.221513	0.0862381	0.533684	0.347249	0	0	-0.00077201	-0.348397	0.224057	0.693448	1.39476	0	0
0.07	2.75983	1.47188	-1.08254	0.628722	-0.52974	0.927625	0.182182	0.000447352	-0.176659	0.329409	0.127612	0	0	0.177801	-0.242572	-0.0341436	1.32829	0.0445618	0	0	-0.216704	0.0712485	-0.16236	-0.151104	-0.219656	0.083783	0.530489	0.34768	0	0	-0.0101983	-0.346173	0.226415	0.69017	1.39731	0	0
0.08	2.80413	1.47362	-1.13325	0.630903	-0.519892	0.929977	0.163755	0.000392597	-0.17308	0.315946	0.130137	0	0	0.202433	-0.232365	-0.0322256	1.34073	0.0632464	0	0	-0.217289	0.0649898	-0.155781	-0.154634	-0.21815	0.0816968	0.52853	0.348502	0	0	-0.0194336	-0.343878	0.228644	0.687019	1.40117	0	0
0.09	2.84938	1.47572	-1.18474	0.632956	-0.510142	0.932171	0.145796	-0.000201885	-0.169369	0.302153	0.132936	0	0	0.227224	-0.222264	-0.0322469	1.34922	0.0831067	0	0	-0.217092	0.0585696	-0.149217	-0.159206	-0.217669	0.0835107	0.528277	0.341948	0	0	-0.0287681	-0.342091	0.232535	0.685505	1.39775	0	0
0.1	2.86277	1.47293	-1.20473	0.634842	-0.50058	0.935024	0.134019	0.000697403	-0.199279	0.307214	0.108801	0	0	0.247449	-0.218233	-0.0344733	1.35273	0.104825	0	0	-0.221565	0.0577822	-0.141678	-0.161643	-0.21679	0.0776145	0.52497	0.355352	0	0	-0.0365528	-0.336826	0.228253	0.681579	1.41681	0	0
0.11	2.90581	1.47599	-1.25453	0.636662	-0.490896	0.936984	0.117277	-0.000380115	-0.195205	0.292915	0.110625	0	0	0.271854	-0.209001	-0.0394226	1.35367	0.127356	0	0	-0.219885	0.0521195	-0.134651	-0.166482	-0.215605	0.0713253	0.523358	0.366054	0	0	-0.0434714	-0.322094	0.200668	0.668575	1.42471	0	0
0.12	2.95911	1.47624	-1.3149	0.638536	-0.48146	0.938863	0.0974267	-0.00137003	-0.190323	0.277494	0.112451	0	0	0.292607	-0.200802	-0.0468692	1.35101	0.147496	0	0	-0.222124	0.0448847	-0.12748	-0.171728	-0.217467	0.0819621	0.527593	0.33948	0	0	-0.0559736	-0.333141	0.231706	0.684851	1.41284	0	0
0.13	3.00815	1.47744	-1.37175	0.640318	-0.472043	0.940571	0.0786259	-0.00230663	-0.183731	0.260606	0.112822	0	0	0.313462	-0.193198	-0.0564324	1.34431	0.163741	0	0	-0.223287	0.0388677	-0.120441	-0.175714	-0.217561	0.0799544	0.529081	0.341611	0	0	-0.0665493	-0.330591	0.229023	0.687232	1.4143	0	0
0.14	3.05958	1.47816	-1.43171	0.642089	-0.462738	0.942132	0.0603656	-0.00375129	-0.177172	0.244732	0.113189	0	0	0.332768	-0.18669	-0.068862	1.33424	0.177631	0	0	-0.224966	0.0325499	-0.112234	-0.179564	-0.21758	0.0764792	0.531222	0.344904	0	0	-0.0760265	-0.328295	0.227782	0.689766	1.41437	0	0
0.15	3.1129	1.47772	-1.49397	0.64385	-0.453497	0.943627	0.0413533	-0.00546359	-0.169036	0.22903	0.113693	0	0	0.34976	-0.181069	-0.0835487	1.32085	0.189892	0	0	-0.227702	0.0260365	-0.1033	-0.182967	-0.217266	0.0712553	0.533619	0.348841	0	0	-0.084722	-0.326212	0.227204	0.692275	1.4128	0	0
0.16	-3.11966	1.47657	-1.55337	0.645556	-0.444297	0.944974	0.0223758	-0.00741119	-0.162353	0.214329	0.114744	0	0	0.365245	-0.176441	-0.0997376	1.3046	0.201298	0	0	-0.231045	0.0198133	-0.0950043	-0.185532	-0.217105	0.0664932	0.536482	0.352151	0	0	-0.09354	-0.32411	0.225859	0.694751	1.41043	0	0
0.17	-3.07565	1.47527	-1.60618	0.647221	-0.435158	0.946111	0.00379176	-0.00915577	-0.155513	0.200017	0.115942	0	0	0.379886	-0.172981	-0.117076	1.28596	0.21237	0	0	-0.234375	0.0140623	-0.0871341	-0.186996	-0.217089	0.0622471	0.539074	0.355421	0	0	-0.102391	-0.321985	0.224336	0.697552	1.40713	0	0
0.18	-3.01214	1.47312	-1.67575	0.649575	-0.425872	0.947021	-0.0153192	-0.00934764	-0.145868	0.186484	0.115814	0	0	0.393062	-0.180785	-0.133893	1.26481	0.229624	0	0	-0.237662	0.00475687	-0.0814367	-0.188727	-0.215238	0.0580485	0.541624	0.359004	0	0	-0.110539	-0.321602	0.222898	0.699983	1.40277	0	0
0.19	-2.97935	1.47124	-1.71567	0.650935	-0.416738	0.947794	-0.0341588	-0.0107881	-0.138932	0.172821	0.118201	0	0	0.405093	-0.178494	-0.152908	1.24139	0.238158	0	0	-0.240993	-2.75016e-05	-0.0750893	-0.189056	-0.215219	0.0537786	0.544084	0.363204	0	0	-0.118278	-0.319361	0.221485	0.701317	1.39724	0	0
0.2	-2.97903	1.4704	-1.72488	0.651368	-0.407806	0.94835	-0.0516808	-0.0138116	-0.136673	0.159979	0.123462	0	0	0.417333	-0.167075	-0.172837	1.21593	0.238112	0	0	-0.244138	0.000118569	-0.0677295	-0.187591	-0.21731	0.0506177	0.546474	0.369338	0	0	-0.12576	-0.315168	0.22058	0.702072	1.39096	0	0
0.21	-2.98478	1.46635	-1.72814	0.652852	-0.398282	0.948845	-0.0755171	-0.0118228	-0.123663	0.142507	0.12406	0	0	0.422678	-0.184322	-0.215963	1.19059	0.244643	0	0	-0.249395	-0.00151325	-0.0598093	-0.188249	-0.220406	0.057311	0.55315	0.356256	0	0	-0.133911	-0.311525	0.215177	0.702375	1.39999	0	0
0.22	-2.88215	1.46901	-1.83719	0.653853	-0.3892	0.947869	-0.0935234	-0.0222109	-0.0901098	0.120512	0.160214	0	0	0.437753	-0.174574	-0.238472	1.16028	0.248375	0	0	-0.245087	-0.0135698	-0.0563161	-0.187769	-0.219731	0.0558143	0.555907	0.360854	0	0	-0.142669	-0.311179	0.214414	0.704567	1.39526	0	0
0.23	-2.95362	1.46148	-1.76962	0.65477	-0.380166	0.949257	-0.114436	-0.0141865	-0.110568	0.117227	0.130137	0	0	0.436194	-0.181284	-0.255748	1.12483	0.249815	0	0	-0.257469	-0.00819414	-0.0522305	-0.183289	-0.22116	0.0556075	0.556791	0.362859	0	0	-0.145268	-0.307151	0.214926	0.700145	1.39199	0	0
0.24	-2.85946	1.46522	-1.86872	0.655535	-0.371173	0.947796	-0.129286	-0.0244425	-0.0807455	0.0992509	0.167895	0	0	0.450043	-0.171568	-0.278599	1.08866	0.250648	0	0	-0.251928	-0.0193157	-0.050168	-0.182117	-0.220796	0.0566765	0.55952	0.365253	0	0	-0.152606	-0.307154	0.215725	0.700354	1.3871	0	0
0.25	-2.85286	1.46379	-1.87759	0.656101	-0.362207	0.947479	-0.146589	-0.0249909	-0.0773336	0.0887781	0.172482	0	0	0.454839	-0.169199	-0.29806	1.04826	0.250982	0	0	-0.255323	-0.0213402	-0.0494353	-0.178474	-0.221315	0.0586799	0.560933	0.366819	0	0	-0.156964	-0.305103	0.215664	0.697505	1.38409	0	0
0.26	-2.85176	1.46283	-1.8798	0.65647	-0.353192	0.946968	-0.16462	-0.0245174	-0.0710452	0.0762647	0.174337	0	0	0.458641	-0.166377	-0.316663	1.00494	0.25109	0	0	-0.25829	-0.0224724	-0.0497378	-0.175	-0.221921	0.0611407	0.562741	0.368521	0	0	-0.160746	-0.302954	0.215874	0.694257	1.3815	0	0
0.27	-2.78739	1.46717	-1.94537	0.656588	-0.344222	0.945113	-0.178654	-0.0325994	-0.0464257	0.0485667	0.166402	0	0	0.469447	-0.15737	-0.335882	0.959879	0.251209	0	0	-0.252677	-0.0286826	-0.0508261	-0.173141	-0.222131	0.0633468	0.565339	0.3702	0	0	-0.165792	-0.301807	0.216444	0.692466	1.37961	0	0
0.28	-2.86099	1.46444	-1.87145	0.656734	-0.33499	0.945089	-0.194268	-0.021797	-0.0683096	0.0593347	0.183644	0	0	0.465447	-0.16023	-0.352611	0.910973	0.251953	0	0	-0.260034	-0.0221981	-0.0514917	-0.169034	-0.224095	0.0682902	0.566677	0.366438	0	0	-0.167282	-0.297648	0.214625	0.685103	1.38447	0	0
0.29	-2.86083	1.46474	-1.8711	0.656675	-0.32578	0.943985	-0.20779	-0.0213731	-0.0718146	0.0552827	0.191588	0	0	0.465568	-0.154294	-0.369644	0.85851	0.251425	0	0	-0.261106	-0.0227515	-0.0531798	-0.165586	-0.223039	0.0642442	0.565326	0.394094	0	0	-0.169447	-0.296997	0.222107	0.680949	1.35528	0	0
0.3	-2.86886	1.4668	-1.86122	0.656446	-0.31655	0.942538	-0.220333	-0.0191558	-0.0726447	0.0496338	0.197833	0	0	0.467114	-0.148384	-0.383722	0.805329	0.252374	0	0	-0.260602	-0.0216995	-0.0565016	-0.162727	-0.224193	0.0710463	0.567192	0.389689	0	0	-0.172148	-0.29456	0.219833	0.676122	1.36271	0	0
0.31	-2.87211	1.46923	-1.85503	0.656027	-0.307335	0.940915	-0.23256	-0.0172117	-0.0738102	0.0433948	0.204243	0	0	0.467708	-0.14002	-0.395002	0.748624	0.253689	0	0	-0.259604	-0.0210373	-0.0606649	-0.160111	-0.224755	0.0771963	0.568398	0.38786	0	0	-0.17426	-0.292725	0.218418	0.670872	1.36765	0	0
0.32	-2.8729	1.47215	-1.8504	0.655457	-0.298051	0.939093	-0.243859	-0.015242	-0.0752494	0.0385795	0.210963	0	0	0.467549	-0.129823	-0.403898	0.689412	0.255949	0	0	-0.257916	-0.0205019	-0.065466	-0.158023	-0.22489	0.0826147	0.569274	0.386667	0	0	-0.176043	-0.291184	0.217272	0.665465	1.3731	0	0
0.33	-2.87056	1.47486	-1.84842	0.654782	-0.288686	0.937186	-0.25343	-0.0139392	-0.0786656	0.0380887	0.219943	0	0	0.4651	-0.117151	-0.409009	0.625954	0.25744	0	0	-0.256316	-0.0204269	-0.0707182	-0.156254	-0.224603	0.087411	0.569845	0.385498	0	0	-0.177174	-0.28948	0.21444	0.659728	1.38184	0	0
0.34	-2.87511	1.47805	-1.8392	0.654033	-0.279238	0.935127	-0.261859	-0.0118186	-0.0829913	0.0394838	0.229196	0	0	0.461758	-0.104317	-0.410915	0.561334	0.258927	0	0	-0.254439	-0.0196014	-0.0758047	-0.155237	-0.223657	0.0888619	0.570841	0.384951	0	0	-0.178095	-0.288003	0.211556	0.655015	1.39062	0	0
0.35	-2.8738	1.48064	-1.83548	0.653172	-0.269727	0.93305	-0.270234	-0.0104913	-0.0885539	0.0421446	0.239169	0	0	0.455583	-0.0888959	-0.407049	0.493068	0.25754	0	0	-0.253084	-0.0196047	-0.0812428	-0.154155	-0.221958	0.0881814	0.571548	0.386937	0	0	-0.178731	-0.286813	0.207744	0.650302	1.402	0	0
0.36	-2.86195	1.48206	-1.84231	0.652242	-0.260143	0.93104	-0.278695	-0.010627	-0.0957748	0.0468608	0.250347	0	0	0.444652	-0.0698713	-0.393889	0.418264	0.251852	0	0	-0.252846	-0.0210979	-0.0866594	-0.152407	-0.218092	0.0798462	0.569337	0.405305	0	0	-0.178898	-0.285158	0.199106	0.64497	1.42747	0	0
